<?xml version="1.0" encoding="UTF-8"?><svg id="Layer_2" xmlns="http://www.w3.org/2000/svg" viewBox="0 0 301.06 88.71"><defs><style>.cls-1{fill:#404041;}.cls-2{fill:#447099;}</style></defs><path class="cls-1" d="M136.05,49.79c-1.44,2.04-3.42,3.64-5.95,4.79-2.53,1.15-5.29,1.73-8.3,1.73-5.52,0-9.91-1.63-13.17-4.89-3.26-3.26-4.89-7.62-4.89-13.07,0-5.12,1.66-9.39,4.97-12.82,3.31-3.43,7.64-5.14,13-5.14,3.08,0,5.84.56,8.28,1.68,2.44,1.12,4.28,2.58,5.52,4.39l-4.01,3.81c-2.44-2.71-5.6-4.06-9.48-4.06-3.61,0-6.51,1.1-8.68,3.31-2.17,2.21-3.26,5.15-3.26,8.83s1.13,6.58,3.39,8.81c2.26,2.22,5.19,3.34,8.81,3.34,4.25,0,7.66-1.54,10.24-4.62l3.56,3.91Z"/><path class="cls-1" d="M141.27,33.06c2.59-2.56,5.95-3.84,10.06-3.84s7.48,1.28,10.09,3.84c2.61,2.56,3.91,5.81,3.91,9.76s-1.3,7.15-3.91,9.71c-2.61,2.56-5.97,3.84-10.09,3.84s-7.38-1.28-10.01-3.84c-2.63-2.56-3.94-5.8-3.94-9.71s1.3-7.2,3.89-9.76ZM145.53,48.71c1.49,1.56,3.42,2.33,5.8,2.33s4.36-.75,5.85-2.26c1.49-1.51,2.23-3.5,2.23-5.97s-.77-4.47-2.31-6c-1.54-1.52-3.46-2.28-5.77-2.28s-4.27.75-5.77,2.26-2.26,3.51-2.26,6.02c0,2.37.74,4.34,2.23,5.9Z"/><path class="cls-1" d="M169.01,29.82h5.72v2.36c1.97-1.94,4.65-2.91,8.03-2.91,6.99,0,10.49,3.96,10.49,11.89v14.75h-5.72v-14.3c0-2.48-.52-4.26-1.56-5.37-1.04-1.1-2.66-1.66-4.87-1.66-1.4,0-2.68.39-3.81,1.18-1.14.79-1.99,1.86-2.56,3.24v16.91h-5.72v-26.09Z"/><path class="cls-1" d="M198.14,29.82h5.72v2.36c1.97-1.94,4.65-2.91,8.03-2.91,6.99,0,10.49,3.96,10.49,11.89v14.75h-5.72v-14.3c0-2.48-.52-4.26-1.56-5.37-1.04-1.1-2.66-1.66-4.87-1.66-1.4,0-2.68.39-3.81,1.18-1.14.79-1.99,1.86-2.56,3.24v16.91h-5.72v-26.09Z"/><path class="cls-1" d="M249.95,51.05c-2.64,3.55-6.17,5.32-10.59,5.32s-7.6-1.23-10.16-3.69-3.84-5.75-3.84-9.86,1.18-7.24,3.54-9.78c2.36-2.54,5.64-3.81,9.86-3.81,3.55,0,6.47,1.1,8.78,3.29,2.31,2.19,3.46,5.08,3.46,8.66,0,.87-.1,2.09-.3,3.66h-19.37c.23,2.01,1.09,3.55,2.56,4.62,1.47,1.07,3.33,1.61,5.57,1.61,2.94,0,5.27-1.15,6.97-3.46l3.51,3.46ZM233.8,35.84c-1.24.97-2.04,2.31-2.41,4.01h13.7c-.23-1.77-.92-3.13-2.06-4.06s-2.64-1.4-4.52-1.4-3.48.49-4.72,1.45Z"/><path class="cls-1" d="M279.12,49.94c-1.04,2.04-2.58,3.62-4.62,4.74-2.04,1.12-4.23,1.68-6.57,1.68-4.22,0-7.61-1.24-10.19-3.71-2.58-2.48-3.86-5.75-3.86-9.83s1.27-7.16,3.81-9.73c2.54-2.58,5.85-3.86,9.93-3.86,2.61,0,4.91.54,6.9,1.63,1.99,1.09,3.42,2.52,4.29,4.29l-4.27,2.81c-1.71-2.27-3.93-3.41-6.67-3.41-2.37,0-4.32.77-5.82,2.31-1.51,1.54-2.26,3.53-2.26,5.97s.79,4.34,2.38,5.9,3.69,2.33,6.3,2.33c2.74,0,4.93-1.24,6.57-3.71l4.06,2.61Z"/><path class="cls-1" d="M280.34,29.82h4.52v-5.37h5.72v5.37h8.43v5.32h-8.43v10.08c0,2.07.26,3.54.78,4.39.52.85,1.38,1.28,2.58,1.28,1.34,0,2.58-.74,3.71-2.21l3.41,3.21c-.74,1.27-1.81,2.31-3.24,3.11-1.42.8-3,1.2-4.74,1.2-2.54,0-4.55-.8-6.02-2.41-1.47-1.61-2.21-3.93-2.21-6.97v-11.69h-4.52v-5.32Z"/><rect class="cls-2" x="37.94" y="22.72" width="38.34" height="38.34" rx="2.17" ry="2.17" transform="translate(-12.89 52.65) rotate(-45)"/><path class="cls-2" d="M15.67,43.36c-.74-.74-.74-1.94,0-2.68L49.31,7.05l-6.5-6.5c-.74-.74-1.94-.74-2.68,0L0,40.69c-.74.74-.74,1.94,0,2.68l40.13,40.13c.74.74,1.94.74,2.68,0l6.5-6.5L15.67,43.36Z"/><path class="cls-1" d="M219.94,68.08h2.5v5.65c.84-.86,1.94-1.3,3.32-1.3,1.68,0,3,.53,3.93,1.59.94,1.06,1.41,2.46,1.41,4.19,0,1.87-.54,3.36-1.63,4.46-1.08,1.1-2.53,1.65-4.33,1.65-1.03,0-2-.17-2.92-.52-.92-.34-1.68-.84-2.28-1.48v-14.24ZM223.64,75.25c-.51.33-.91.75-1.19,1.26v4.42c.63.7,1.55,1.05,2.77,1.05.97,0,1.76-.32,2.37-.96.62-.64.92-1.53.92-2.69s-.29-2.01-.87-2.64-1.36-.95-2.34-.95c-.6,0-1.16.17-1.67.49Z"/><path class="cls-1" d="M233.92,86.25c.15.09.32.13.51.13.69,0,1.29-.64,1.8-1.91l.4-1.03-5.62-10.74h2.9l3.93,7.71,3.03-7.71h2.68l-4.48,11.1c-.76,1.86-1.48,3.15-2.14,3.86-.67.71-1.47,1.07-2.41,1.07-.61,0-1.14-.11-1.58-.33l.99-2.13Z"/><path class="cls-1" d="M250.04,84.12v-15.38h6.22c1.25,0,2.3.14,3.18.43.87.29,1.53.68,1.98,1.2s.77,1.04.96,1.59c.19.55.29,1.16.29,1.83s-.11,1.28-.34,1.86-.58,1.11-1.05,1.6-1.14.88-2,1.17c-.86.29-1.86.43-3.02.43h-3.54v5.27h-2.66ZM252.7,71.22v5.14h3.49c2.46,0,3.69-.86,3.69-2.59s-1.18-2.55-3.54-2.55h-3.65Z"/><path class="cls-1" d="M264.6,74.11c1.14-1.12,2.6-1.68,4.41-1.68s3.27.56,4.42,1.68c1.14,1.12,1.71,2.54,1.71,4.27s-.57,3.13-1.71,4.25c-1.14,1.12-2.61,1.68-4.42,1.68s-3.23-.56-4.38-1.68c-1.15-1.12-1.73-2.54-1.73-4.25s.57-3.15,1.7-4.27ZM266.47,80.96c.65.68,1.5,1.02,2.54,1.02s1.91-.33,2.56-.99c.65-.66.98-1.53.98-2.61s-.34-1.96-1.01-2.63c-.67-.67-1.52-1-2.53-1s-1.87.33-2.53.99-.99,1.54-.99,2.64c0,1.04.33,1.9.98,2.58Z"/><path class="cls-1" d="M282.88,80.08c-.48-.22-1.05-.42-1.72-.6s-1.35-.4-2.03-.65c-.68-.25-1.26-.63-1.74-1.14s-.71-1.13-.71-1.85c0-1.05.42-1.89,1.25-2.49s1.98-.91,3.45-.91c.98,0,1.9.2,2.75.59s1.47.87,1.87,1.43l-1.71,1.63c-.76-.88-1.87-1.32-3.32-1.32-1.13,0-1.69.34-1.69,1.03,0,.23.17.45.52.64.34.19.77.35,1.29.47.51.12,1.07.29,1.66.51.59.21,1.15.44,1.66.69.51.25.94.61,1.29,1.09.34.48.52,1.03.52,1.66,0,1.14-.45,2.01-1.34,2.59-.89.59-2.01.88-3.36.88-1.23,0-2.31-.26-3.25-.77-.94-.51-1.62-1.17-2.04-1.98l1.98-1.36c.32.51.81.94,1.47,1.27.66.34,1.35.51,2.09.51.53,0,.97-.09,1.33-.27s.54-.47.54-.85c0-.31-.24-.57-.71-.79Z"/><path class="cls-1" d="M288.26,68.47c.29-.25.63-.37,1.04-.37s.75.13,1.03.39c.28.26.42.57.42.93,0,.39-.14.72-.42.98-.28.26-.62.38-1.03.38-.44,0-.79-.13-1.07-.38s-.41-.58-.41-.98.14-.7.43-.95ZM288.06,72.69h2.5v11.43h-2.5v-11.43Z"/><path class="cls-1" d="M291.99,72.69h1.98v-2.35h2.51v2.35h3.69v2.33h-3.69v4.42c0,.91.11,1.55.34,1.92.23.37.6.56,1.13.56.59,0,1.13-.32,1.63-.97l1.49,1.41c-.32.56-.79,1.01-1.42,1.36-.62.35-1.31.53-2.08.53-1.11,0-1.99-.35-2.64-1.05-.64-.7-.97-1.72-.97-3.05v-5.12h-1.98v-2.33Z"/></svg>